# xmcd CD database file
#
# Track frame offsets:
#	150
#	12624
#	25155
#	33664
#	43899
#	55746
#	63927
#	73492
#	87321
#	99239
#	111942
#	124374
#	138075
#	150292
#	163623
#	182345
#	196674
#	213684
#	227942
#	238747
#
# Disc length: 3417 seconds
#
# Revision: 3
# Processed by: cddbd v1.5.1PL0 Copyright (c) Steve Scherf et al.
# Submitted via: CDex 1.51
#
DISCID=180d5714
DTITLE=Johnny Cash - The Man In Black - Best Of - CD1
DYEAR=2001
DGENRE=Country
TTITLE0=Folsom Prison Blues(Live)
TTITLE1=I Walk The Line
TTITLE2=Guess Things Happen That Way
TTITLE3=Get Rhytm
TTITLE4=I Still Miss Someone
TTITLE5=Five Feet High And Rising
TTITLE6=I Got Stripes
TTITLE7=Don't Take Your Guns To Town
TTITLE8=Ring Of Fire
TTITLE9=Jackson(W/June Carter)
TTITLE10=Understand Your Man
TTITLE11=Tennesee Flat-Top Box
TTITLE12=When It's Springtime In Alaska
TTITLE13=San Quentin(Live)
TTITLE14=The Ballad Of Ira Hayes
TTITLE15=The Long Black Veil
TTITLE16=A Boy Named Sue(Live)
TTITLE17=Orange Blossom Special(W The Carter Family,C.McCoy&B.Randolph
TTITLE18=Daddy Sang Bass
TTITLE19=Where Were You(When They Crucified My Lord)
EXTD=YEAR: 2001
EXTT0=
EXTT1=
EXTT2=
EXTT3=
EXTT4=
EXTT5=
EXTT6=
EXTT7=
EXTT8=
EXTT9=
EXTT10=
EXTT11=
EXTT12=
EXTT13=
EXTT14=
EXTT15=
EXTT16=
EXTT17=
EXTT18=
EXTT19=
PLAYORDER=
